<svg width="16" height="16" viewBox="0 0 16 16" fill="none" xmlns="http://www.w3.org/2000/svg">
<g clip-path="url(#clip0_294_437)">
<path d="M14.5134 5.96557C14.4046 5.92667 14.3052 5.86537 14.2216 5.78563C14.138 5.70589 14.072 5.60949 14.0281 5.50266C13.9841 5.39583 13.963 5.28095 13.9662 5.16546C13.9694 5.04998 13.9968 4.93645 14.0467 4.83223C14.238 4.4296 14.3001 3.97763 14.2243 3.53834C14.1485 3.09905 13.9386 2.69399 13.6234 2.37874C13.3083 2.06349 12.9032 1.85351 12.464 1.77763C12.0247 1.70174 11.5727 1.76366 11.17 1.9549C11.0658 2.00465 10.9523 2.03199 10.8368 2.03515C10.7214 2.03831 10.6065 2.01722 10.4997 1.97324C10.3929 1.92926 10.2965 1.86338 10.2168 1.77984C10.137 1.6963 10.0757 1.59696 10.0367 1.48823C9.88682 1.06895 9.611 0.706255 9.247 0.449813C8.883 0.193372 8.44862 0.0557251 8.00336 0.0557251C7.5581 0.0557251 7.12373 0.193372 6.75973 0.449813C6.39573 0.706255 6.1199 1.06895 5.97003 1.48823C5.93113 1.59702 5.86983 1.69643 5.79009 1.78003C5.71035 1.86363 5.61395 1.92956 5.50712 1.97354C5.40029 2.01753 5.28541 2.0386 5.16993 2.03539C5.05444 2.03218 4.94092 2.00476 4.8367 1.9549C4.43381 1.76215 3.98107 1.69906 3.54084 1.77434C3.10061 1.84961 2.69455 2.05953 2.3786 2.37519C2.06265 2.69085 1.85234 3.09672 1.77667 3.53688C1.70099 3.97704 1.76365 4.42984 1.95603 4.8329C2.00599 4.9371 2.0335 5.05064 2.03677 5.16616C2.04003 5.28168 2.01898 5.39659 1.97498 5.50345C1.93098 5.61031 1.86501 5.70672 1.78135 5.78645C1.69769 5.86617 1.59821 5.92743 1.48936 5.96623C1.07038 6.11641 0.708021 6.39235 0.45184 6.75631C0.195659 7.12027 0.0581665 7.55449 0.0581665 7.99957C0.0581665 8.44465 0.195659 8.87886 0.45184 9.24283C0.708021 9.60679 1.07038 9.88273 1.48936 10.0329C1.59844 10.0714 1.6982 10.1325 1.78216 10.2121C1.86612 10.2917 1.93241 10.388 1.97673 10.4949C2.02105 10.6018 2.04241 10.7168 2.03941 10.8324C2.03642 10.9481 2.00915 11.0618 1.95936 11.1662C1.76792 11.5686 1.70569 12.0204 1.78122 12.4595C1.85674 12.8987 2.06632 13.3037 2.38118 13.619C2.69605 13.9343 3.10078 14.1444 3.53982 14.2206C3.97887 14.2967 4.43072 14.2351 4.83336 14.0442C4.93758 13.9944 5.05111 13.967 5.16659 13.9637C5.28208 13.9605 5.39696 13.9816 5.50379 14.0256C5.61061 14.0696 5.70702 14.1355 5.78676 14.2191C5.8665 14.3027 5.9278 14.4021 5.9667 14.5109C6.11657 14.9302 6.39239 15.2929 6.75639 15.5493C7.12039 15.8058 7.55477 15.9434 8.00003 15.9434C8.44529 15.9434 8.87967 15.8058 9.24367 15.5493C9.60767 15.2929 9.88349 14.9302 10.0334 14.5109C10.0723 14.4021 10.1336 14.3027 10.2133 14.2191C10.293 14.1355 10.3894 14.0696 10.4963 14.0256C10.6031 13.9816 10.718 13.9605 10.8335 13.9637C10.949 13.967 11.0625 13.9944 11.1667 14.0442C11.5693 14.2356 12.0213 14.2976 12.4606 14.2218C12.8999 14.146 13.3049 13.9361 13.6202 13.621C13.9354 13.3058 14.1454 12.9008 14.2213 12.4615C14.2972 12.0222 14.2353 11.5702 14.044 11.1676C13.9943 11.0633 13.9669 10.9498 13.9638 10.8344C13.9606 10.7189 13.9817 10.6041 14.0257 10.4973C14.0697 10.3905 14.1355 10.2941 14.2191 10.2143C14.3026 10.1346 14.402 10.0732 14.5107 10.0342C14.93 9.88436 15.2927 9.60854 15.5491 9.24454C15.8056 8.88054 15.9432 8.44616 15.9432 8.0009C15.9432 7.55564 15.8056 7.12126 15.5491 6.75726C15.2927 6.39326 14.93 6.11744 14.5107 5.96757L14.5134 5.96557Z" fill="#F7A525"/>
</g>
<defs>
<clipPath id="clip0_294_437">
<rect width="16" height="16" fill="white"/>
</clipPath>
</defs>
</svg>
