<svg width="44" height="44" viewBox="0 0 44 44" fill="none" xmlns="http://www.w3.org/2000/svg">
<g clip-path="url(#clip0_294_101)">
<path d="M33.1212 19.0689L25.5362 11.4829C24.5974 10.5469 23.3259 10.0213 22.0002 10.0213C20.6745 10.0213 19.403 10.5469 18.4642 11.4829L10.8792 19.0689C10.5996 19.3467 10.378 19.6772 10.2271 20.0413C10.0762 20.4054 9.99907 20.7958 10.0002 21.1899V31.0069C10.0002 31.8026 10.3163 32.5656 10.8789 33.1282C11.4415 33.6909 12.2045 34.0069 13.0002 34.0069H31.0002C31.7958 34.0069 32.5589 33.6909 33.1215 33.1282C33.6841 32.5656 34.0002 31.8026 34.0002 31.0069V21.1899C34.0013 20.7958 33.9242 20.4054 33.7733 20.0413C33.6224 19.6772 33.4008 19.3467 33.1212 19.0689ZM25.0002 32.0069H19.0002V28.0729C19.0002 27.2773 19.3163 26.5142 19.8789 25.9516C20.4415 25.389 21.2045 25.0729 22.0002 25.0729C22.7958 25.0729 23.5589 25.389 24.1215 25.9516C24.6841 26.5142 25.0002 27.2773 25.0002 28.0729V32.0069ZM32.0002 31.0069C32.0002 31.2721 31.8948 31.5265 31.7073 31.714C31.5198 31.9016 31.2654 32.0069 31.0002 32.0069H27.0002V28.0729C27.0002 26.7468 26.4734 25.4751 25.5357 24.5374C24.598 23.5997 23.3263 23.0729 22.0002 23.0729C20.6741 23.0729 19.4023 23.5997 18.4647 24.5374C17.527 25.4751 17.0002 26.7468 17.0002 28.0729V32.0069H13.0002C12.735 32.0069 12.4806 31.9016 12.2931 31.714C12.1056 31.5265 12.0002 31.2721 12.0002 31.0069V21.1899C12.0011 20.9249 12.1064 20.6709 12.2932 20.4829L19.8782 12.8999C20.4419 12.3389 21.2049 12.0239 22.0002 12.0239C22.7955 12.0239 23.5585 12.3389 24.1222 12.8999L31.7072 20.4859C31.8933 20.6732 31.9985 20.9259 32.0002 21.1899V31.0069Z" fill="#848484"/>
</g>
<defs>
<clipPath id="clip0_294_101">
<rect width="24" height="24" fill="white" transform="translate(10 10)"/>
</clipPath>
</defs>
</svg>
