<svg width="18" height="15" viewBox="0 0 18 15" fill="none" xmlns="http://www.w3.org/2000/svg">
<path d="M17.3092 9.80746L15.9738 5.40515C15.5462 3.86541 14.6164 2.51267 13.3322 1.56169C12.048 0.610709 10.4828 0.116008 8.88531 0.156131C7.2878 0.196255 5.74947 0.768903 4.51458 1.78315C3.27969 2.7974 2.41902 4.19512 2.06922 5.75438L1.0323 10.0136C0.894479 10.5796 0.887012 11.1695 1.01046 11.7387C1.13391 12.308 1.38505 12.8418 1.74493 13.2998C2.10481 13.7579 2.56403 14.1282 3.08793 14.3828C3.61183 14.6374 4.18672 14.7698 4.76922 14.7698H13.6285C14.229 14.7698 14.8212 14.6292 15.3577 14.3592C15.8941 14.0892 16.3599 13.6973 16.7177 13.215C17.0755 12.7326 17.3153 12.1732 17.4181 11.5814C17.5208 10.9897 17.4835 10.3822 17.3092 9.80746Z" fill="white"/>
</svg>
