<svg width="14" height="18" viewBox="0 0 14 18" fill="none" xmlns="http://www.w3.org/2000/svg">
<path d="M6.33646 0.19332C6.7375 -0.0633209 7.2625 -0.0633209 7.66354 0.19332L8.3125 0.604648C8.53125 0.741757 8.78646 0.808554 9.04531 0.794492L9.82188 0.748788C10.3031 0.720663 10.7552 0.973788 10.9703 1.38863L11.3203 2.06012C11.437 2.28512 11.6266 2.46441 11.8563 2.57691L12.5599 2.91793C12.9901 3.12535 13.2526 3.56129 13.2234 4.02535L13.176 4.77418C13.1615 5.02379 13.2307 5.2734 13.3729 5.48082L13.8031 6.1066C14.0693 6.49332 14.0693 6.99957 13.8031 7.38629L13.3729 8.01559C13.2307 8.22652 13.1615 8.47262 13.176 8.72223L13.2234 9.47105C13.2526 9.93512 12.9901 10.3711 12.5599 10.5785L11.8635 10.916C11.6302 11.0285 11.4443 11.2113 11.3276 11.4328L10.974 12.1113C10.7589 12.5261 10.3068 12.7793 9.82552 12.7511L9.04896 12.7054C8.7901 12.6914 8.53125 12.7582 8.31615 12.8953L7.66719 13.3101C7.26615 13.5668 6.74115 13.5668 6.34011 13.3101L5.6875 12.8953C5.46875 12.7582 5.21354 12.6914 4.95469 12.7054L4.17813 12.7511C3.69688 12.7793 3.24479 12.5261 3.02969 12.1113L2.67969 11.4398C2.56302 11.2148 2.37344 11.0355 2.14375 10.923L1.44011 10.582C1.0099 10.3746 0.747397 9.93863 0.776564 9.47457L0.82396 8.72574C0.838543 8.47613 0.769272 8.22652 0.627085 8.0191L0.200522 7.3898C-0.0656237 7.00309 -0.0656237 6.49684 0.200522 6.11012L0.627085 5.48434C0.769272 5.2734 0.838543 5.0273 0.82396 4.77769L0.776564 4.02887C0.747397 3.5648 1.0099 3.12887 1.44011 2.92144L2.13646 2.58394C2.36979 2.46793 2.55938 2.28512 2.67604 2.06012L3.02604 1.38863C3.24115 0.973788 3.69323 0.720663 4.17448 0.748788L4.95104 0.794492C5.2099 0.808554 5.46875 0.741757 5.68386 0.604648L6.33646 0.19332ZM9.91667 6.74996C9.91667 6.00404 9.60938 5.28867 9.0624 4.76122C8.51542 4.23378 7.77355 3.93746 7 3.93746C6.22645 3.93746 5.48459 4.23378 4.93761 4.76122C4.39063 5.28867 4.08333 6.00404 4.08333 6.74996C4.08333 7.49588 4.39063 8.21125 4.93761 8.7387C5.48459 9.26614 6.22645 9.56246 7 9.56246C7.77355 9.56246 8.51542 9.26614 9.0624 8.7387C9.60938 8.21125 9.91667 7.49588 9.91667 6.74996ZM0.0473971 15.532L1.61875 11.9285C1.62604 11.932 1.62969 11.9355 1.63333 11.9425L1.98333 12.614C2.4099 13.4296 3.29583 13.9254 4.24375 13.8726L5.02031 13.8269C5.02761 13.8269 5.03854 13.8269 5.04583 13.8339L5.69479 14.2488C5.88073 14.3648 6.07761 14.4562 6.28177 14.5195L4.91094 17.6589C4.82708 17.8523 4.64115 17.9824 4.42604 18C4.21094 18.0175 4.00313 17.9226 3.88646 17.7468L2.7125 16.0136L0.667189 16.3054C0.459376 16.3336 0.251564 16.2527 0.120314 16.0945C-0.0109362 15.9363 -0.036457 15.7183 0.0437513 15.532H0.0473971ZM9.08906 17.6554L7.71823 14.5195C7.9224 14.4562 8.11927 14.3683 8.30521 14.2488L8.95417 13.8339C8.96146 13.8304 8.96875 13.8269 8.97969 13.8269L9.75625 13.8726C10.7042 13.9254 11.5901 13.4296 12.0167 12.614L12.3667 11.9425C12.3703 11.9355 12.374 11.932 12.3813 11.9285L13.9563 15.532C14.0365 15.7183 14.0073 15.9328 13.8797 16.0945C13.7521 16.2562 13.5406 16.3371 13.3328 16.3054L11.2875 16.0136L10.1135 17.7433C9.99688 17.9191 9.78906 18.014 9.57396 17.9964C9.35886 17.9789 9.17292 17.8453 9.08906 17.6554Z" fill="#588B6A"/>
</svg>
