<svg width="16" height="15" viewBox="0 0 16 15" fill="none" xmlns="http://www.w3.org/2000/svg">
<path d="M16 5.15358V12.8336C16 13.0104 15.9297 13.18 15.8047 13.305C15.6797 13.43 15.5101 13.5002 15.3333 13.5002C15.1565 13.5002 14.9869 13.43 14.8619 13.305C14.7369 13.18 14.6666 13.0104 14.6666 12.8336V7.33491L9.73329 9.69225C9.21312 9.99928 8.6193 10.1592 8.01529 10.1549C7.38186 10.1559 6.75993 9.98567 6.21529 9.66225L1.29529 7.32025C0.908544 7.11228 0.584496 6.8046 0.35677 6.42915C0.129044 6.0537 0.00593745 5.62415 0.000223636 5.18507C-0.00549018 4.74599 0.106397 4.31338 0.324276 3.93213C0.542155 3.55088 0.858087 3.23488 1.23929 3.01691C1.25729 3.00625 1.27662 2.99625 1.29529 2.98691L6.26662 0.614914C6.80333 0.306688 7.41246 0.146999 8.03136 0.152272C8.65026 0.157545 9.25658 0.327589 9.78796 0.644914L14.7046 2.98691C15.0926 3.20157 15.4168 3.51511 15.6443 3.89567C15.8718 4.27622 15.9945 4.71023 16 5.15358ZM8.01462 11.4869C7.16168 11.4888 6.32337 11.2653 5.58462 10.8389L2.66662 9.44625V11.2462C2.66702 11.9579 2.89487 12.6509 3.31691 13.2239C3.73895 13.7969 4.33309 14.2201 5.01262 14.4316C5.98351 14.7103 6.98992 14.8458 7.99996 14.8336C9.01013 14.8449 10.0165 14.7086 10.9873 14.4289C11.6668 14.2174 12.261 13.7943 12.683 13.2212C13.105 12.6482 13.3329 11.9553 13.3333 11.2436V9.44958L10.3606 10.8696C9.64705 11.2795 8.83756 11.493 8.01462 11.4882V11.4869Z" fill="#868CD1"/>
</svg>
